
	<svg xmlns="http://www.w3.org/2000/svg" xmlns:xlink="http://www.w3.org/1999/xlink" version="1.1" width="512" height="512" viewBox="0 0 100 100">


		<defs>
			<g id="background">
<path fill="url(#background-gradient)" stroke="none" d=" M 100 18.4 Q 100 10.8 94.6 5.4 89.05 0 81.6 0 L 18.4 0 Q 10.8 0 5.4 5.4 0 10.8 0 18.4 L 0 81.6 Q 0 89.05 5.4 94.6 10.8 100 18.4 100 L 81.6 100 Q 89.05 100 94.6 94.6 100 89.05 100 81.6 L 100 18.4 Z"/>
</g><g id="middle-1">
<path fill="#000000" fill-opacity="0.4" stroke="none" d=" M 100 75.4 Q 99.8 82.4 94.6 87.75 89.2 93.15 81.6 93.15 L 18.4 93.15 Q 10.8 93.15 5.4 87.75 0.2 82.5 0 75.4 L 0 81.65 Q 0 89.2 5.4 94.6 10.8 100 18.4 100 L 81.6 100 Q 89.2 100 94.6 94.6 100 89.1 100 81.65 L 100 75.4 Z"/>
</g><mask id="mask">
<path fill="#FFFFFF" stroke="none" d=" M 100 18.4 Q 100 10.8 94.6 5.4 89.05 0 81.6 0 L 18.4 0 Q 10.8 0 5.4 5.4 0 10.8 0 18.4 L 0 75.4 Q 0.2 82.5 5.4 87.75 10.8 93.15 18.4 93.15 L 81.6 93.15 Q 89.2 93.15 94.6 87.75 99.8 82.4 100 75.4 L 100 18.4 Z"/>
</mask>
			
	<linearGradient id="background-gradient" x1="0" y1="0" y2="1" x2="0" >
		<stop stop-color="#59cdff" offset="0%"/>
		<stop stop-color="#36a0d6" offset="100%"/>
	</linearGradient>

			
			
			<g transform="scale(3.125) translate(0 2.5)" id="picture"><path d="M29 0H17c-1.7 0-3 1.3-3 3v6h-2c-.6 0-1 .4-1 1s.4 1 1 1h2v8c0 1.7 1.3 3 3 3h3v1.1c0 .6.4 1 1 1s1-.4 1-1V22h7c1.7 0 3-1.3 3-3V3c0-1.7-1.3-3-3-3zM16 5.2h14v11.7H16V5.2zM17 2h12c.6 0 1 .4 1 1v1.2H16V3c0-.6.4-1 1-1zm12 18H17c-.6 0-1-.4-1-1v-1.2h14V19c0 .6-.4 1-1 1zM2 24v-1.5c0-.6-.4-1-1-1s-1 .4-1 1V24c0 .2 0 .5.1.7.1.5.5.8 1 .8h.2c.5-.1.9-.7.7-1.2V24zm-1-3.5c.6 0 1-.4 1-1v-2c0-.6-.4-1-1-1s-1 .4-1 1v2c0 .6.4 1 1 1zM3 11h1.2c.6 0 1-.4 1-1s-.4-1-1-1H3c-.4 0-.8.1-1.2.2-.5.3-.7.9-.5 1.4.2.4.5.6.9.6.1 0 .3 0 .4-.1.1-.1.3-.1.4-.1zm-2 4.6c.6 0 1-.4 1-1v-2c0-.6-.4-1-1-1s-1 .4-1 1v2c0 .6.4 1 1 1zm9.1-5.6c0-.6-.4-1-1-1h-2c-.6 0-1 .4-1 1s.4 1 1 1h2c.5 0 1-.4 1-1zm9.4 14.9c-.1.1-.3.1-.5.1h-.9c-.6 0-1 .4-1 1s.4 1 1 1h.9c.5 0 1.1-.1 1.5-.4.5-.3.6-.9.3-1.4s-.8-.6-1.3-.3zm-4.4.1h-2c-.6 0-1 .4-1 1s.4 1 1 1h2c.6 0 1-.4 1-1s-.4-1-1-1zm-9.8 0h-2c-.6 0-1 .4-1 1s.4 1 1 1h2c.6 0 1-.4 1-1s-.5-1-1-1zm4.9 0h-2c-.6 0-1 .4-1 1s.4 1 1 1h2c.6 0 1-.4 1-1s-.4-1-1-1z"/></g>
			
	<linearGradient id="picture-gradient" x1="0" y1="0" y2="1" x2="0" >
		<stop stop-color="#fff" offset="0%"/>
		<stop stop-color="#ffffff" offset="0%"/>
	</linearGradient>

		</defs>

		

			<use xlink:href="#background" fill="url(#background-gradient)" />

		<use xlink:href="#middle-1" />

			<g mask="url(#mask)">
				<g transform="
				        translate(
                                50 45
)
                            translate(0 5)  scale(0.675)  scale(1 -1)
                            translate(
                                -50 -45
)">
						<use xlink:href="#picture" fill="url(#picture-gradient)"  />
				</g>
			</g>

		



	</svg>
